<?xml version="1.0" ?><svg data-name="Layer 1" id="Layer_1" viewBox="0 0 300 300" xmlns="http://www.w3.org/2000/svg"><title/><path d="M152.59,261.62l-85-112.14v3l85-114.14h-5.18l82,115.14v-3l-82,111.14c-2.29,3.11,2.91,6.11,5.18,3l82-111.14a2.9,2.9,0,0,0,0-3l-82-115.14a3.05,3.05,0,0,0-5.18,0l-85,114.14a2.89,2.89,0,0,0,0,3l85,112.14C149.71,267.69,154.93,264.7,152.59,261.62Z"/><path d="M153.59,284.66,51,149.26v3L153.59,14.47h-5.18l99,139v-3l-99,134.2c-2.29,3.11,2.91,6.11,5.18,3l99-134.2a2.9,2.9,0,0,0,0-3l-99-139a3.05,3.05,0,0,0-5.18,0L45.77,149.26a2.89,2.89,0,0,0,0,3l102.64,135.4C150.71,290.73,155.93,287.74,153.59,284.66Z"/></svg>